<?xml version="1.0" encoding="utf-8"?>
<!-- Generator: Adobe Illustrator 15.0.0, SVG Export Plug-In . SVG Version: 6.00 Build 0)  -->
<!DOCTYPE svg PUBLIC "-//W3C//DTD SVG 1.1//EN" "http://www.w3.org/Graphics/SVG/1.1/DTD/svg11.dtd">
<svg version="1.1" id="Layer_1" xmlns="http://www.w3.org/2000/svg" xmlns:xlink="http://www.w3.org/1999/xlink" x="0px" y="0px"
	 width="641px" height="100px" viewBox="0 -40.5 641 100" enable-background="new 0 -40.5 641 100" xml:space="preserve">
<rect width="27" height="60"/>
<rect x="28" y="12" width="25" height="48"/>
<rect x="54" y="23" width="25" height="37"/>
<rect x="80" y="30" width="25" height="30"/>
<rect x="106" y="18" width="25" height="42"/>
<rect x="132" y="12" width="24.999" height="48"/>
<rect x="158" y="18" width="24.999" height="42"/>
<rect x="184" y="26" width="25" height="34"/>
<rect x="218" y="30" width="25" height="30"/>
<rect x="244" y="36" width="25" height="24"/>
<rect x="270" y="42" width="25" height="18"/>
<rect x="296" y="43" width="25" height="17"/>
<rect x="322" y="41" width="25" height="19"/>
<rect x="348" y="31" width="24.999" height="29"/>
<rect x="374" y="28" width="24.999" height="32"/>
<rect x="400" y="27" width="25" height="33"/>
<rect x="434" y="20" width="25" height="40"/>
<rect x="460" y="16" width="25" height="44"/>
<rect x="486" y="14" width="25" height="46"/>
<rect x="512" y="13" width="25" height="47"/>
<rect x="538" y="18" width="25" height="42"/>
<rect x="564" y="20" width="24.999" height="40"/>
<rect x="590" y="23" width="24.999" height="37"/>
<rect x="616" y="26" width="25" height="34"/>
</svg>
